<svg width="56" height="56" viewBox="0 0 56 56" fill="none" xmlns="http://www.w3.org/2000/svg">
<path opacity="0.2" d="M28 2L36 10H20L28 2ZM28 54L36 46H20L28 54ZM46 20V36L54 28L46 20ZM2 28L10 36V20L2 28Z" fill="#0FF1F6"/>
<path d="M20 12H26V20C26 20.5304 26.2107 21.0391 26.5858 21.4142C26.9608 21.7893 27.4696 22 28 22C28.5304 22 29.0391 21.7893 29.4142 21.4142C29.7893 21.0391 30 20.5304 30 20V12H36C36.3958 12.0003 36.7828 11.8832 37.1119 11.6634C37.4411 11.4437 37.6977 11.1312 37.8492 10.7656C38.0007 10.3999 38.0403 9.99754 37.963 9.60937C37.8857 9.2212 37.695 8.8647 37.415 8.58499L29.415 0.584986C29.2292 0.399034 29.0087 0.251515 28.7659 0.150867C28.5231 0.0502182 28.2628 -0.00158691 28 -0.00158691C27.7372 -0.00158691 27.4769 0.0502182 27.2341 0.150867C26.9913 0.251515 26.7707 0.399034 26.585 0.584986L18.585 8.58499C18.305 8.8647 18.1142 9.2212 18.0369 9.60937C17.9596 9.99754 17.9992 10.3999 18.1507 10.7656C18.3022 11.1312 18.5588 11.4437 18.888 11.6634C19.2172 11.8832 19.6042 12.0003 20 12ZM28 4.82749L31.1725 7.99999H24.8275L28 4.82749ZM36 44H30V36C30 35.4696 29.7893 34.9608 29.4142 34.5858C29.0391 34.2107 28.5304 34 28 34C27.4696 34 26.9608 34.2107 26.5858 34.5858C26.2107 34.9608 26 35.4696 26 36V44H20C19.6042 43.9997 19.2172 44.1168 18.888 44.3365C18.5588 44.5563 18.3022 44.8688 18.1507 45.2344C17.9992 45.6001 17.9596 46.0024 18.0369 46.3906C18.1142 46.7788 18.305 47.1353 18.585 47.415L26.585 55.415C26.7707 55.6009 26.9913 55.7485 27.2341 55.8491C27.4769 55.9498 27.7372 56.0016 28 56.0016C28.2628 56.0016 28.5231 55.9498 28.7659 55.8491C29.0087 55.7485 29.2292 55.6009 29.415 55.415L37.415 47.415C37.695 47.1353 37.8857 46.7788 37.963 46.3906C38.0403 46.0024 38.0007 45.6001 37.8492 45.2344C37.6977 44.8688 37.4411 44.5563 37.1119 44.3365C36.7828 44.1168 36.3958 43.9997 36 44ZM28 51.1725L24.8275 48H31.1725L28 51.1725ZM55.415 26.585L47.415 18.585C47.1353 18.305 46.7788 18.1142 46.3906 18.0369C46.0024 17.9596 45.6001 17.9992 45.2344 18.1507C44.8688 18.3022 44.5563 18.5588 44.3365 18.888C44.1168 19.2172 43.9997 19.6042 44 20V26H36C35.4696 26 34.9608 26.2107 34.5858 26.5858C34.2107 26.9608 34 27.4696 34 28C34 28.5304 34.2107 29.0391 34.5858 29.4142C34.9608 29.7893 35.4696 30 36 30H44V36C43.9997 36.3958 44.1168 36.7828 44.3365 37.1119C44.5563 37.4411 44.8688 37.6977 45.2344 37.8492C45.6001 38.0007 46.0024 38.0403 46.3906 37.963C46.7788 37.8857 47.1353 37.695 47.415 37.415L55.415 29.415C55.6009 29.2292 55.7485 29.0087 55.8491 28.7659C55.9498 28.5231 56.0016 28.2628 56.0016 28C56.0016 27.7372 55.9498 27.4769 55.8491 27.2341C55.7485 26.9913 55.6009 26.7707 55.415 26.585ZM48 31.1725V24.8275L51.1725 28L48 31.1725ZM20 30C20.5304 30 21.0391 29.7893 21.4142 29.4142C21.7893 29.0391 22 28.5304 22 28C22 27.4696 21.7893 26.9608 21.4142 26.5858C21.0391 26.2107 20.5304 26 20 26H12V20C12.0003 19.6042 11.8832 19.2172 11.6634 18.888C11.4437 18.5588 11.1312 18.3022 10.7656 18.1507C10.3999 17.9992 9.99754 17.9596 9.60937 18.0369C9.2212 18.1142 8.8647 18.305 8.58499 18.585L0.584986 26.585C0.399034 26.7707 0.251515 26.9913 0.150867 27.2341C0.0502182 27.4769 -0.00158691 27.7372 -0.00158691 28C-0.00158691 28.2628 0.0502182 28.5231 0.150867 28.7659C0.251515 29.0087 0.399034 29.2292 0.584986 29.415L8.58499 37.415C8.8647 37.695 9.2212 37.8857 9.60937 37.963C9.99754 38.0403 10.3999 38.0007 10.7656 37.8492C11.1312 37.6977 11.4437 37.4411 11.6634 37.1119C11.8832 36.7828 12.0003 36.3958 12 36V30H20ZM7.99999 31.1725L4.82749 28L7.99999 24.8275V31.1725Z" fill="#0FF1F6"/>
</svg>
